<?xml version="1.0" standalone="no"?>
<!DOCTYPE svg PUBLIC "-//W3C//DTD SVG 20010904//EN"
 "http://www.w3.org/TR/2001/REC-SVG-20010904/DTD/svg10.dtd">
<svg version="1.0" xmlns="http://www.w3.org/2000/svg"
 width="600.000000pt" height="500.000000pt" viewBox="0 0 600.000000 500.000000"
 preserveAspectRatio="xMidYMid meet">
<metadata>
Created by potrace 1.11, written by Peter Selinger 2001-2013
</metadata>
<g transform="translate(0.000000,500.000000) scale(0.100000,-0.100000)"
fill="#000000" stroke="none">
<path d="M964 4984 c0 -10 9 -26 19 -36 10 -10 15 -24 11 -30 -4 -7 -3 -8 4
-4 8 5 10 -3 7 -26 -4 -26 -3 -28 3 -9 l8 25 22 -24 c12 -13 22 -31 22 -39 0
-9 3 -34 7 -56 l6 -40 -23 20 c-20 17 -22 17 -17 3 3 -9 11 -36 18 -60 11 -42
12 -42 22 -18 6 14 17 28 23 32 7 5 12 23 12 42 0 18 5 42 10 52 13 25 12 32
-15 85 -13 26 -23 50 -23 54 0 18 -35 38 -74 42 -37 3 -44 2 -42 -13z"/>
<path d="M5605 4970 c-8 -16 -15 -34 -15 -40 0 -10 -21 -60 -61 -146 -20 -43
-23 -71 -13 -99 5 -13 8 -12 19 7 69 128 87 164 90 177 7 33 34 87 55 109 l21
22 -40 0 c-35 0 -43 -4 -56 -30z"/>
<path d="M706 4904 c-11 -29 -6 -74 11 -100 17 -27 20 -114 3 -124 -16 -10 -9
-99 10 -122 l19 -23 7 42 c4 25 11 40 17 36 5 -3 7 -1 3 5 -3 6 3 45 14 86 17
61 19 80 9 98 -13 25 -79 118 -84 118 -2 0 -6 -7 -9 -16z"/>
<path d="M5798 4685 c-15 -31 -19 -48 -12 -53 6 -4 16 -30 23 -57 10 -42 9
-56 -4 -88 -19 -47 -32 -47 -41 -1 -4 21 -10 32 -15 27 -6 -6 -3 -27 5 -51 17
-48 11 -73 -28 -114 -14 -15 -26 -32 -26 -38 0 -25 -86 -173 -102 -178 -11 -3
-18 -14 -18 -31 -1 -14 -7 -37 -15 -51 -17 -30 -19 -44 -5 -35 6 3 10 -1 10
-10 0 -12 6 -15 23 -10 18 5 16 2 -8 -14 -33 -23 -68 -30 -47 -9 7 7 12 17 12
22 0 6 -11 -6 -25 -27 -14 -20 -29 -37 -34 -37 -9 0 -35 -51 -32 -63 1 -5 -3
-6 -8 -3 -10 6 -51 -31 -51 -45 0 -4 9 -5 21 -2 20 5 19 2 -10 -53 -17 -33
-39 -67 -50 -76 -18 -15 -19 -15 -24 2 -3 11 0 21 7 24 7 3 7 5 -2 5 -10 1
-10 6 -1 24 7 12 -6 2 -29 -23 -22 -25 -38 -47 -36 -49 2 -3 10 4 18 14 12 17
14 16 25 -18 7 -20 9 -41 6 -47 -9 -14 -46 -3 -63 19 -12 15 -14 14 -28 -3
-21 -29 -17 -44 9 -39 38 6 51 -10 34 -43 -10 -21 -12 -36 -5 -54 5 -14 7 -33
4 -42 -2 -10 0 -21 5 -24 5 -3 9 -14 9 -24 0 -16 -4 -17 -31 -10 -18 5 -39 15
-48 22 -39 31 -63 40 -72 27 -5 -9 1 -17 20 -25 16 -7 32 -17 35 -23 4 -6 15
-11 24 -11 9 0 31 -14 48 -31 32 -31 59 -49 102 -68 12 -6 25 -18 28 -26 4 -8
17 -15 30 -15 19 0 25 -8 34 -42 6 -24 27 -99 46 -167 35 -122 35 -124 16
-145 -10 -11 -61 -70 -113 -131 -52 -60 -141 -164 -199 -230 -58 -66 -122
-140 -142 -164 l-37 -44 -34 26 c-19 14 -42 42 -51 62 -20 42 -29 122 -15 130
5 4 9 16 9 27 0 25 63 87 102 100 31 11 30 3 29 176 0 57 -3 108 -7 113 -3 5
-20 9 -37 9 -18 0 -39 0 -47 1 -8 0 -48 -1 -88 -3 l-74 -4 -55 57 c-87 90 -86
88 -78 183 l7 83 -70 52 c-66 49 -71 55 -78 99 -19 134 -13 123 -89 165 -39
21 -75 43 -81 50 -6 7 -21 46 -34 88 l-23 77 -81 25 -81 24 -45 79 -46 79 -54
7 c-118 16 -115 15 -170 85 l-51 67 -88 -3 -87 -3 -66 60 -66 60 -86 -19 -86
-19 -70 45 c-39 25 -74 45 -78 45 -4 0 -42 -14 -84 -31 l-78 -31 -77 31 c-43
17 -81 31 -85 31 -4 0 -39 -20 -78 -45 -77 -49 -61 -48 -185 -16 -22 6 -43 11
-47 11 -4 0 -37 -26 -75 -57 l-67 -58 -87 3 -87 4 -53 -70 -54 -69 -87 -13
-88 -12 -41 -77 -41 -78 -82 -26 -81 -27 -30 -85 c-16 -46 -35 -87 -42 -90 -8
-2 -11 0 -8 5 7 11 -41 90 -55 90 -6 0 -10 -30 -10 -68 0 -68 0 -68 -34 -84
-29 -14 -34 -23 -40 -65 -4 -26 -9 -60 -12 -75 l-6 -28 -25 30 c-13 17 -29 30
-34 30 -15 0 -10 -59 7 -86 9 -13 15 -26 13 -27 -2 -2 -26 -20 -52 -41 l-49
-39 3 -88 3 -88 -50 -53 c-27 -29 -52 -52 -56 -50 -5 1 -7 -1 -7 -6 4 -25 -4
-32 -40 -32 -22 0 -41 3 -43 8 -1 4 -32 31 -68 61 -36 30 -70 61 -77 69 -6 8
-17 11 -24 6 -7 -4 -10 -3 -6 3 4 6 -12 27 -34 46 -32 29 -43 34 -54 24 -10
-10 -7 -16 13 -34 14 -12 29 -20 34 -17 4 3 8 -1 8 -9 0 -18 127 -123 154
-128 28 -6 32 -29 6 -29 -22 0 -67 33 -172 123 -29 25 -85 72 -124 104 -88 72
-335 285 -429 368 -38 34 -86 75 -105 91 -19 16 -71 60 -115 98 -44 39 -90 79
-102 90 l-23 19 0 -29 c0 -24 13 -40 83 -96 110 -90 198 -164 235 -198 19 -17
210 -181 257 -220 16 -14 45 -40 63 -57 19 -18 36 -33 39 -33 3 0 31 -21 62
-47 31 -27 69 -59 86 -73 16 -14 41 -37 54 -52 14 -16 31 -28 38 -28 6 0 20
-11 31 -25 11 -14 26 -26 33 -26 8 -1 -2 -4 -21 -8 -35 -6 -35 -6 -38 -63 l-3
-58 -27 14 c-15 8 -38 26 -51 40 -14 14 -32 26 -41 26 -9 0 -21 5 -28 12 -7 7
-12 8 -13 2 0 -5 -2 -19 -5 -32 -2 -13 -8 -80 -14 -150 -5 -70 -15 -174 -21
-230 -10 -88 -10 -105 2 -113 21 -13 32 -11 25 6 -3 8 -2 15 3 15 5 0 11 -9
14 -21 3 -12 10 -18 16 -14 6 3 14 -2 18 -12 4 -10 11 -21 17 -25 15 -10 39
30 33 55 -6 29 17 95 27 78 4 -6 10 -47 12 -89 3 -46 10 -81 18 -87 8 -6 13
-39 14 -92 2 -95 16 -93 -125 -20 -51 26 -95 47 -99 47 -3 0 -4 -12 -1 -27 3
-15 2 -36 -3 -47 -4 -12 -10 -64 -13 -117 l-6 -97 38 -6 c21 -3 44 -13 51 -21
7 -8 20 -15 29 -15 21 0 129 -44 144 -59 6 -6 21 -11 34 -11 26 0 67 -36 58
-50 -4 -6 -13 -10 -21 -10 -12 0 -12 -4 2 -25 14 -21 15 -38 9 -93 -11 -103
-11 -125 3 -129 8 -3 12 5 11 24 -2 28 15 269 27 391 l6 62 69 0 c38 0 69 -4
69 -8 0 -5 26 -37 57 -72 l57 -63 -3 -87 -3 -88 70 -55 c58 -47 70 -62 75 -94
13 -74 12 -75 -29 -58 -58 24 -74 20 -73 -17 2 -46 16 -99 19 -73 2 11 6 2 10
-20 l7 -40 2 35 c3 53 13 71 31 60 11 -7 12 -12 3 -18 -6 -4 -14 -21 -18 -37
-6 -29 -6 -29 9 -11 16 20 16 20 17 0 0 -19 1 -19 8 0 5 14 10 16 15 7 4 -6 2
-19 -6 -28 -12 -15 -11 -15 9 -4 15 7 23 21 23 36 0 31 1 31 60 -1 47 -26 47
-26 50 -82 1 -32 2 -67 1 -80 0 -13 3 -21 8 -17 6 3 7 36 4 75 -8 98 14 86 50
-25 l28 -84 87 -30 87 -31 -55 6 c-30 4 -76 12 -101 18 l-46 12 -2 -109 c-1
-97 1 -108 14 -97 8 7 15 9 16 4 1 -21 18 34 18 63 1 37 13 47 42 38 14 -5 19
-13 16 -25 -3 -11 1 -21 9 -24 8 -3 14 -15 14 -26 0 -11 7 -23 15 -26 11 -5
15 -22 15 -70 0 -48 3 -64 14 -64 14 0 16 23 3 36 -12 13 -7 54 7 60 8 3 12
13 9 25 -4 14 0 19 15 19 17 0 19 5 14 45 -3 29 -1 45 6 45 23 0 41 -57 41
-126 -1 -129 -7 -117 61 -112 33 2 62 7 65 9 3 3 8 33 11 67 6 54 9 62 28 62
24 -1 106 -108 106 -140 0 -11 5 -20 10 -20 6 0 10 5 10 11 0 8 21 10 68 7 37
-3 77 -2 89 3 16 6 33 -4 86 -51 l66 -58 83 18 83 18 73 -44 c40 -24 76 -44
80 -44 4 0 42 14 85 31 l77 31 80 -32 c43 -17 83 -30 87 -28 4 1 40 22 78 45
l70 41 83 -18 84 -18 66 60 66 59 85 -6 86 -6 37 48 c65 85 78 94 164 104 79
10 114 29 114 63 0 8 5 18 10 21 9 5 16 -46 11 -83 -1 -6 3 -12 10 -12 8 0 10
15 5 49 -8 60 11 128 36 134 10 3 18 0 18 -6 0 -6 7 -2 15 9 13 17 14 17 15 2
0 -24 7 -23 36 10 l24 27 -2 -51 c-1 -27 1 -54 4 -60 3 -5 8 -21 12 -36 3 -16
13 -28 21 -28 11 0 13 14 9 73 -3 39 -7 80 -9 90 -2 9 0 17 5 17 4 0 10 -35
14 -77 9 -103 15 -123 35 -123 29 0 39 49 30 156 -5 54 -6 100 -4 103 3 2 6
-3 6 -12 1 -9 2 -20 3 -24 1 -5 6 -41 10 -81 8 -69 23 -102 48 -102 7 0 9 21
4 63 -3 34 -9 96 -11 137 -7 100 10 61 20 -46 4 -43 10 -83 13 -89 3 -5 15 11
26 35 l21 45 65 0 65 0 0 35 c-1 19 -4 69 -7 110 l-7 75 14 -50 c7 -27 16 -76
20 -107 l6 -57 67 -6 c37 -3 74 -10 82 -16 8 -5 29 -19 47 -30 17 -11 41 -35
53 -52 l21 -32 -5 40 c-3 22 -12 94 -21 160 -9 66 -22 164 -30 218 -20 131
-19 153 4 102 10 -23 31 -141 51 -284 30 -215 36 -244 54 -250 17 -7 17 -8 3
-14 -22 -8 -22 -40 1 -60 10 -10 21 -15 23 -12 3 2 6 -4 7 -13 1 -9 4 -30 6
-47 2 -20 -3 -36 -15 -48 -10 -10 -22 -29 -25 -43 -4 -16 -11 -23 -21 -20 -8
4 -11 1 -8 -5 5 -7 -6 -9 -31 -7 -36 3 -39 6 -39 32 0 16 6 31 13 34 6 2 12
-3 12 -12 0 -16 12 -21 23 -10 9 10 -4 34 -19 34 -8 0 -14 5 -14 10 0 6 -62
10 -165 10 -140 0 -165 -2 -165 -15 0 -18 26 -20 33 -2 4 10 7 10 18 0 8 -8
41 -13 85 -13 77 0 107 -7 98 -21 -3 -5 6 -9 20 -9 19 0 26 -5 26 -19 0 -15
-10 -19 -52 -23 -29 -3 -90 -3 -136 0 -75 4 -83 7 -79 23 3 11 1 19 -4 19 -5
0 -9 -9 -9 -20 0 -15 -7 -20 -26 -20 -17 0 -28 -6 -31 -19 -3 -12 -19 -23 -41
-28 -36 -9 -37 -10 -34 -54 2 -24 8 -48 13 -54 10 -10 719 -21 719 -12 0 3
-26 13 -57 23 -32 9 -64 22 -70 27 -24 18 -3 25 44 15 82 -16 156 -29 222 -39
36 -5 73 -17 83 -25 12 -12 27 -15 54 -10 26 5 34 4 29 -4 -5 -9 7 -11 46 -9
39 3 53 1 52 -8 -2 -7 6 -13 17 -13 11 0 20 5 20 10 0 6 9 10 20 10 26 0 26
-20 0 -27 -38 -10 -19 -38 28 -41 47 -4 56 -18 16 -28 l-27 -7 29 -13 c25 -11
16 -12 -76 -9 -172 7 -243 8 -275 5 -28 -3 116 -17 245 -24 30 -2 70 -6 88
-10 30 -7 31 -9 16 -20 -16 -12 -16 -13 2 -20 10 -4 81 -10 156 -13 l137 -6 1
634 c0 500 -3 649 -14 704 -18 94 -81 380 -107 486 l-21 86 -67 12 c-36 7
-111 23 -166 36 -89 22 -94 24 -40 19 33 -3 102 -14 154 -25 51 -10 99 -19
105 -19 13 0 5 43 -43 260 -33 146 -25 138 -89 83 -31 -26 -88 -77 -125 -113
-76 -72 -97 -87 -97 -70 0 14 73 90 87 90 10 0 94 71 150 128 27 27 33 41 33
75 0 38 1 39 15 21 8 -10 15 -28 15 -39 0 -11 11 -65 24 -120 12 -55 34 -146
47 -203 20 -88 26 -102 42 -98 21 5 20 -23 -1 -39 -11 -9 -7 -37 22 -150 20
-77 45 -180 55 -230 l20 -90 0 140 c1 94 -4 158 -14 195 -13 49 -13 56 0 66
20 15 22 144 2 144 -16 0 -135 233 -161 318 -11 35 -2 26 40 -35 l39 -58 3 69
c4 83 0 93 -30 98 -31 4 -36 35 -6 40 13 2 22 8 21 13 0 6 -4 36 -8 68 -7 57
-7 57 19 57 14 0 25 -3 24 -8 -5 -13 49 -65 61 -58 6 4 11 32 11 61 0 54 0 54
-26 45 -14 -6 -36 -10 -50 -10 -14 0 -35 -6 -47 -14 -53 -34 -61 -30 -75 30
-8 31 -12 57 -10 59 8 8 106 9 156 1 l52 -8 0 212 0 211 -27 -3 c-20 -2 -28 2
-28 12 0 8 6 14 13 13 20 -5 13 14 -8 20 -11 3 -20 10 -20 16 0 7 9 9 24 5 16
-4 25 -1 30 11 4 12 0 18 -14 22 -16 4 -18 9 -9 19 6 7 7 18 3 25 -5 8 -13 4
-25 -12 l-19 -24 0 22 c0 25 30 46 54 37 8 -3 17 -18 19 -32 2 -15 5 17 6 71
l1 99 -30 -7 c-30 -7 -30 -6 -31 37 -1 24 -3 69 -5 101 -3 49 -1 58 13 55 8
-2 24 -23 34 -48 l19 -45 -4 195 c-3 201 -4 211 -23 245 -10 16 -11 -10 -7
-120 2 -77 7 -152 9 -167 2 -15 0 -30 -5 -33 -19 -12 -31 39 -29 126 1 49 -1
92 -5 96 -7 8 -8 173 0 173 16 0 46 -24 54 -43 6 -14 9 36 9 140 1 160 1 162
-21 165 -15 2 -24 11 -26 26 -3 19 -9 23 -35 20 -24 -2 -33 -9 -38 -28 -6 -23
-7 -24 -13 -5 -4 11 -12 30 -17 43 -5 13 -9 34 -9 47 0 42 -19 37 -42 -10z
m-2456 -504 c225 -49 476 -159 658 -288 122 -87 306 -272 392 -393 102 -144
207 -359 252 -516 6 -20 4 -21 -248 -23 l-255 -2 -42 83 c-207 412 -607 668
-1066 682 -97 3 -237 -10 -318 -29 -111 -26 -280 -96 -370 -153 -22 -14 -46
-25 -52 -25 -7 0 -13 -4 -13 -8 0 -4 -16 -20 -35 -35 -34 -26 -36 -26 -55 -9
-20 18 -20 19 10 46 18 17 30 38 30 53 0 28 -41 82 -70 91 -20 6 -59 -10 -72
-29 -4 -6 -8 3 -8 21 0 25 -4 31 -15 27 -11 -5 -14 -18 -12 -48 2 -31 11 -50
40 -81 20 -22 37 -43 37 -46 0 -4 13 -21 28 -39 l29 -33 -56 -54 c-47 -47 -56
-52 -61 -37 -9 24 -2 50 16 65 20 16 17 63 -5 90 -18 23 -21 23 -71 10 -46
-12 -54 -11 -68 2 -13 13 -13 19 -2 31 16 20 30 20 30 1 0 -8 5 -15 10 -15 13
0 13 37 -1 45 -18 11 -58 -4 -70 -27 -10 -18 -8 -29 12 -65 24 -43 39 -55 39
-29 0 15 49 36 86 36 27 0 40 -31 25 -57 -6 -10 -11 -14 -11 -10 0 5 -7 1 -16
-8 -10 -10 -24 -13 -36 -9 -15 4 -19 2 -16 -7 3 -8 19 -14 36 -14 18 0 32 -3
32 -7 0 -5 -5 -8 -11 -8 -8 0 -9 -13 -5 -39 5 -33 1 -44 -24 -76 -17 -21 -40
-53 -51 -72 -17 -27 -24 -31 -35 -22 -20 16 -29 4 -17 -23 8 -19 4 -36 -23
-90 l-34 -68 -108 -1 c-59 0 -156 0 -217 1 -106 1 -111 2 -138 29 l-28 28 40
102 c114 288 315 553 558 735 81 61 88 64 95 45 10 -27 31 -13 25 16 -3 21 7
30 87 73 200 110 382 170 621 206 17 2 125 3 240 1 167 -2 230 -7 307 -24z
m2428 -374 l27 -90 21 24 c12 12 22 19 22 13 0 -5 4 -25 9 -46 8 -36 8 -36
-40 -63 -27 -14 -50 -23 -50 -18 -1 4 -2 13 -3 18 -1 6 -12 52 -25 103 -16 65
-20 97 -13 104 6 6 8 27 6 47 -5 31 -4 34 7 16 7 -10 24 -59 39 -108z m-2533
-171 c340 -73 638 -300 792 -602 17 -34 31 -65 31 -69 0 -4 -396 -5 -880 -3
-852 5 -881 5 -895 24 -13 17 -14 17 -15 1 0 -15 -11 -17 -103 -16 l-103 1 1
54 c0 35 -4 59 -13 67 -11 9 -12 4 -7 -25 4 -22 3 -38 -4 -42 -6 -4 -8 -18 -5
-32 6 -23 4 -24 -40 -24 -32 0 -46 4 -46 13 0 17 86 160 130 219 18 24 70 79
115 124 179 178 401 289 650 324 85 12 306 4 392 -14z m-1135 -1028 l3 -153
19 50 c10 28 37 96 58 153 l39 102 44 0 c24 0 46 -3 48 -7 4 -7 -17 -117 -68
-350 l-16 -73 -45 0 c-51 0 -51 0 -29 96 9 36 14 68 12 70 -2 3 -19 -34 -37
-81 l-33 -85 -43 0 -44 0 -1 98 -1 97 -32 -97 c-29 -93 -32 -98 -58 -98 -16 0
-28 4 -28 8 0 4 20 68 45 142 25 74 52 156 60 183 14 46 13 47 -6 37 -31 -17
-51 -56 -51 -105 -1 -49 -17 -58 -50 -28 -35 32 -14 102 45 147 44 34 74 45
124 45 l42 1 3 -152z m1373 130 c-2 -13 -11 -51 -19 -86 l-14 -64 27 7 c33 8
35 13 51 96 l13 69 49 0 c42 0 49 -2 44 -17 -6 -22 -86 -397 -86 -406 0 -4
-20 -7 -45 -7 -53 0 -52 -3 -26 123 l18 87 -27 0 c-29 0 -26 6 -61 -157 l-11
-53 -44 0 c-32 0 -44 4 -44 14 0 8 16 87 35 176 19 89 35 166 35 173 0 6 -12
-1 -27 -16 -21 -21 -28 -37 -29 -74 -2 -51 -11 -60 -43 -43 -16 8 -21 21 -21
50 0 74 95 149 188 150 39 0 42 -2 37 -22z m560 -63 l-13 -55 39 0 c61 0 83
-28 76 -99 -6 -68 -34 -129 -77 -165 -25 -21 -42 -26 -82 -26 -33 0 -58 6 -69
16 -16 15 -20 15 -41 0 -30 -22 -84 -20 -106 2 -18 18 -19 18 -42 0 -47 -38
-131 -10 -129 45 0 12 10 67 22 122 l22 100 48 3 c45 3 47 2 42 -20 -16 -69
-35 -172 -35 -189 0 -20 16 -24 39 -10 7 5 23 55 35 112 l22 104 49 3 c42 3
47 1 43 -15 -20 -75 -41 -204 -35 -210 5 -4 15 -3 24 3 11 7 27 59 49 162 18
84 36 156 39 162 3 5 26 10 49 10 l43 0 -12 -55z m-1540 -70 c14 -13 25 -33
25 -45 0 -35 28 -22 37 18 8 36 10 37 56 40 45 3 47 2 42 -20 -16 -69 -35
-172 -35 -189 0 -10 6 -19 14 -19 23 0 55 48 72 107 15 53 15 54 -8 73 -19 15
-21 22 -12 37 6 10 23 19 37 21 21 3 28 -2 33 -23 20 -79 -29 -219 -89 -255
-43 -27 -101 -26 -128 1 -21 21 -22 58 -3 127 4 13 2 22 -5 22 -6 0 -13 -12
-16 -27 -21 -104 -92 -166 -165 -144 -48 14 -65 51 -57 125 8 79 39 134 90
157 56 25 83 24 112 -6z m611 4 c21 -17 17 -82 -6 -111 -11 -14 -37 -33 -59
-41 -47 -19 -51 -25 -40 -54 13 -35 54 -30 96 12 32 32 63 46 63 27 0 -4 -13
-24 -30 -43 -54 -66 -142 -89 -192 -50 -23 19 -24 19 -48 0 -31 -23 -87 -24
-112 -2 -23 21 -23 43 4 170 l21 103 48 0 47 0 -23 -107 c-13 -60 -20 -112
-15 -116 4 -5 17 -6 29 -2 16 5 21 15 21 43 0 79 42 161 94 183 26 11 83 4
102 -12z m2088 -536 c12 -53 35 -217 31 -223 -2 -4 7 -38 21 -76 27 -73 37
-115 54 -229 5 -38 14 -87 19 -107 6 -27 6 -38 -3 -38 -8 0 -8 -2 0 -8 12 -7
22 -53 29 -130 2 -24 6 -56 10 -70 3 -15 7 -40 9 -57 2 -16 7 -52 11 -79 6
-39 5 -48 -6 -44 -8 3 -19 33 -26 74 -7 38 -15 84 -18 102 -3 17 -11 32 -16
32 -16 0 -99 62 -99 73 0 5 18 29 40 53 30 32 39 50 35 66 -2 13 -18 108 -35
213 -17 104 -32 190 -33 191 -1 1 -32 20 -69 44 -101 62 -85 75 21 17 18 -10
35 -16 38 -13 2 2 -1 40 -8 85 l-12 81 -44 0 c-59 0 -59 25 0 36 23 4 36 9 29
11 -6 3 -10 9 -6 14 10 17 22 9 28 -18z m-1140 -56 c-10 -36 -93 -167 -149
-237 -208 -258 -449 -390 -790 -430 -203 -24 -480 21 -505 82 -5 13 -9 17 -9
10 -1 -9 -8 -8 -26 4 -15 10 -25 12 -25 5 0 -6 -4 -11 -10 -11 -5 0 -10 14
-10 32 l0 31 -19 -22 c-16 -19 -23 -21 -40 -11 -20 10 -25 25 -22 62 1 9 -2
19 -8 22 -11 7 -25 -29 -16 -44 10 -16 -2 -12 -45 15 -34 21 -40 30 -40 60 0
18 -4 37 -10 40 -5 3 -10 1 -10 -5 0 -6 -6 -17 -13 -25 -19 -19 -87 41 -87 76
0 20 -13 34 -61 65 -62 39 -149 144 -149 178 0 9 -4 16 -9 16 -9 0 -51 74 -51
90 0 6 23 10 50 10 49 0 50 -1 50 -30 0 -16 5 -30 11 -30 5 0 9 8 8 18 -4 40
-1 41 104 44 56 2 504 4 995 5 l893 1 -7 -21z m586 6 c8 -8 -53 -174 -80 -216
-15 -23 -66 -87 -114 -141 l-86 -100 0 -58 c0 -67 -14 -77 -24 -18 l-6 40 -59
-62 c-102 -110 -151 -171 -151 -190 0 -10 -4 -17 -9 -16 -10 3 -11 0 -11 -39
l0 -27 20 22 c12 12 24 22 28 22 4 -1 -15 -21 -42 -45 -27 -24 -53 -42 -57
-39 -4 2 -13 -4 -18 -14 -13 -25 -172 -127 -276 -179 -89 -45 -211 -93 -247
-97 -13 -2 -35 -8 -51 -14 -125 -51 -491 -78 -673 -51 -49 7 -79 15 -66 17 26
4 29 17 6 26 -25 10 -34 7 -34 -9 0 -23 -36 -18 -52 8 -9 16 -13 58 -13 147
l0 125 28 3 c15 2 27 -2 27 -8 0 -7 -8 -9 -20 -5 -17 5 -20 2 -20 -27 1 -29 2
-31 13 -16 12 15 14 15 25 -2 9 -14 8 -20 -1 -24 -8 -3 -7 -8 4 -15 9 -6 20
-22 23 -36 4 -14 11 -25 17 -25 15 0 39 -26 32 -34 -4 -3 -1 -6 5 -6 7 0 12 7
12 15 0 8 9 15 20 15 24 0 60 37 60 62 0 10 5 18 10 18 15 0 -7 41 -34 62 -26
22 -76 23 -102 3 -28 -21 -37 -18 -32 10 5 21 2 25 -20 25 l-25 0 22 24 c30
32 10 44 -29 16 l-30 -21 0 44 c0 24 3 64 6 89 l6 45 76 -18 c297 -71 578 -42
832 87 276 139 436 298 571 565 l39 78 247 -6 c137 -3 250 -7 253 -10z m-3036
-185 c-4 -106 -7 -210 -6 -231 4 -72 -11 -75 -52 -11 -20 32 -36 66 -36 76 0
10 -5 18 -11 18 -10 0 -63 108 -99 202 l-18 47 70 -36 c38 -19 72 -32 75 -29
8 7 14 3 -78 50 -64 33 -78 45 -87 73 l-10 33 130 0 131 0 -9 -192z m79 165
c-2 -16 13 -30 67 -63 45 -27 72 -51 79 -68 5 -15 10 -20 10 -12 2 30 21 -13
21 -47 0 -31 -14 -46 -22 -23 -1 5 -16 -1 -33 -14 -27 -22 -30 -30 -30 -83 0
-53 -2 -58 -23 -61 -36 -5 -55 17 -49 55 7 39 -7 52 -23 23 -13 -24 -4 -96 12
-106 7 -5 8 -2 3 5 -5 10 -3 10 13 0 13 -8 17 -19 14 -33 -5 -18 -7 -18 -10
-3 -4 19 -23 22 -39 6 -20 -20 -31 0 -25 46 3 30 1 45 -7 45 -7 0 -9 9 -5 25
4 15 2 25 -5 25 -6 0 -11 14 -11 31 0 25 3 29 18 25 14 -5 18 0 20 24 2 23 -2
30 -15 31 -16 0 -16 1 1 8 18 7 18 8 3 14 -9 3 -17 11 -17 18 0 6 7 9 15 5 8
-3 15 -1 15 4 0 6 -7 10 -15 10 -12 0 -15 15 -15 71 l0 70 28 -3 c21 -2 27 -8
25 -25z m208 -35 c20 -40 33 -82 35 -116 4 -56 32 -136 33 -95 1 12 4 28 7 37
4 11 1 16 -10 16 -9 0 -16 5 -16 10 0 6 6 10 14 10 18 0 56 -60 57 -91 0 -21
1 -22 8 -5 7 18 8 18 14 2 4 -10 7 -34 7 -55 0 -20 7 -46 15 -57 15 -18 16
-17 10 13 -11 54 3 54 55 -1 36 -38 50 -61 50 -82 0 -23 2 -26 11 -14 9 12 9
11 4 -5 -4 -11 -9 -29 -11 -40 l-4 -20 9 20 c8 17 10 14 10 -17 1 -54 18 -47
28 12 l8 51 47 -33 c42 -29 48 -37 48 -70 0 -20 5 -40 10 -43 6 -4 10 8 10 29
l0 35 45 -26 c31 -17 45 -31 46 -46 0 -20 1 -20 11 -6 11 16 14 16 45 1 30
-14 33 -20 33 -61 0 -24 3 -41 7 -37 4 4 6 23 4 42 -1 19 2 34 8 34 7 0 11
-25 11 -64 0 -57 -2 -64 -21 -69 -15 -4 -20 -11 -16 -21 4 -9 2 -16 -3 -16
-13 0 -13 -87 0 -95 6 -3 9 -32 8 -63 l-1 -57 -7 45 c-4 25 -8 37 -8 28 -1
-10 -8 -18 -15 -18 -12 0 -14 -16 -9 -92 1 -19 6 -26 16 -22 8 3 16 -3 19 -14
3 -16 -1 -21 -22 -25 -14 -3 -29 -3 -34 0 -4 2 -7 77 -6 166 2 157 2 161 -20
171 -17 7 -25 6 -31 -4 -5 -9 -5 -17 1 -21 6 -3 6 -14 0 -30 -7 -17 -10 -19
-10 -6 -1 30 -21 18 -21 -13 0 -32 9 -37 28 -18 9 9 12 7 13 -12 l1 -25 8 25
c7 22 8 20 9 -15 0 -29 -2 -36 -9 -25 -8 12 -10 9 -10 -12 0 -22 -4 -26 -20
-23 -11 2 -18 0 -15 -6 4 -5 13 -9 21 -9 9 0 14 -10 14 -27 0 -22 2 -25 10
-13 5 8 10 10 10 4 0 -6 -7 -17 -15 -24 -8 -7 -15 -9 -15 -5 0 5 -3 6 -6 3 -3
-4 2 -18 12 -32 21 -34 16 -39 -24 -24 -29 11 -32 16 -33 58 0 25 -2 81 -5
126 -5 65 -3 83 10 93 23 19 20 57 -6 75 -34 24 -75 20 -103 -10 -25 -27 -33
-18 -15 16 8 15 6 20 -10 25 -11 3 -20 11 -20 17 0 7 5 6 15 -2 8 -6 19 -9 25
-5 15 9 -7 35 -30 35 -17 0 -37 30 -42 64 -2 11 -9 21 -15 24 -13 4 -16 -19
-15 -89 0 -22 -3 -25 -23 -21 -34 6 -42 39 -16 66 l21 22 -29 28 c-30 29 -60
36 -98 23 -20 -7 -22 -4 -28 50 -9 83 -13 90 -43 98 l-27 7 33 26 c24 20 32
35 32 58 0 19 -6 34 -15 38 -20 7 -31 -20 -16 -38 8 -10 5 -18 -13 -35 l-24
-23 3 116 c3 109 2 118 -18 137 -18 16 -20 23 -9 39 18 29 15 37 -15 37 -16 0
-53 17 -83 37 l-55 36 73 0 72 0 31 -62z m17 -411 c7 -33 -8 -67 -33 -79 -31
-14 -33 -48 -4 -66 16 -10 19 -19 14 -42 -4 -16 -2 -37 4 -47 6 -11 11 -13 11
-5 0 7 5 10 10 7 6 -3 10 -38 10 -77 0 -91 -16 -82 -19 10 -1 34 -21 16 -21
-19 l0 -31 -44 39 c-24 21 -71 69 -105 106 -50 56 -61 74 -61 103 0 20 -6 37
-14 40 -11 4 -11 10 -2 30 13 28 21 30 30 9 3 -8 13 -15 21 -15 9 0 14 4 10 9
-3 6 4 15 15 21 16 9 24 8 36 -5 8 -8 11 -15 5 -15 -6 0 -11 -4 -11 -10 0 -5
7 -10 15 -10 8 0 15 -7 15 -16 0 -10 5 -14 16 -10 8 3 12 2 9 -4 -3 -6 -1 -10
5 -10 7 0 10 12 9 28 -4 37 28 84 55 80 11 -2 22 -11 24 -21z m3338 -862 c5
-19 16 -24 82 -34 42 -7 88 -15 102 -19 60 -15 -39 -13 -155 2 -66 9 -140 19
-165 22 -47 6 -62 18 -53 41 4 11 27 14 94 12 83 -2 90 -3 95 -24z"/>
<path d="M2754 3966 c6 -31 4 -34 -21 -41 -45 -11 -63 -34 -63 -80 0 -28 6
-47 18 -58 20 -19 77 -23 87 -7 3 6 17 7 30 4 12 -3 26 -1 29 5 4 6 -1 11 -12
11 -16 0 -21 14 -37 100 -9 55 -22 100 -27 100 -6 0 -8 -14 -4 -34z"/>
<path d="M2545 3877 c-44 -14 -65 -36 -65 -68 0 -75 43 -112 101 -86 19 9 43
17 54 19 11 2 19 8 17 13 -2 6 -9 9 -15 8 -7 -2 -21 24 -31 58 -11 33 -22 62
-25 63 -3 2 -19 -1 -36 -7z"/>
<path d="M3670 3722 c-39 -39 -40 -82 -4 -111 37 -29 78 -27 103 5 41 52 21
114 -41 129 -22 6 -33 1 -58 -23z"/>
<path d="M4045 1555 c-35 -34 -34 -86 1 -114 38 -30 87 -28 113 5 31 39 27 77
-10 108 -38 33 -73 33 -104 1z"/>
<path d="M3593 1224 c-55 -23 -70 -80 -32 -128 23 -30 78 -36 99 -12 6 8 21
16 33 18 12 2 21 8 19 13 -2 6 -9 9 -16 7 -7 -1 -23 23 -35 53 -13 30 -26 57
-29 59 -4 2 -21 -3 -39 -10z"/>
<path d="M3351 1195 c-35 -12 -63 -55 -37 -55 8 0 16 6 19 13 2 6 10 -8 17
-33 7 -25 18 -64 26 -88 12 -40 12 -44 -7 -63 -11 -11 -18 -23 -15 -26 2 -3
19 9 36 27 28 29 30 35 21 62 -6 17 -11 32 -11 33 0 2 11 6 25 9 33 8 59 49
51 80 -13 54 -53 67 -125 41z"/>
<path d="M365 4675 c-3 -14 -7 -36 -10 -50 -4 -19 1 -32 21 -50 24 -23 26 -30
21 -76 -4 -29 -9 -54 -12 -57 -3 -3 -16 5 -30 18 l-25 24 17 -34 c10 -20 16
-53 14 -81 -2 -38 3 -52 24 -75 14 -15 27 -25 30 -22 4 4 33 125 39 163 2 11
8 34 15 50 29 70 27 80 -30 150 -29 36 -56 65 -61 65 -4 0 -10 -11 -13 -25z"/>
<path d="M976 4529 c-15 -46 -13 -75 4 -94 19 -20 21 -42 17 -162 -2 -50 13
-80 19 -38 3 20 13 57 40 143 14 42 13 43 -23 95 -49 70 -52 73 -57 56z"/>
<path d="M625 4344 c-5 -29 -2 -41 15 -59 16 -18 22 -37 23 -87 2 -57 0 -64
-15 -60 -15 4 -18 -3 -18 -36 0 -22 -3 -47 -6 -56 -4 -10 -1 -16 9 -16 9 0 19
-9 22 -20 6 -18 28 -30 23 -12 -4 16 15 127 29 166 8 22 17 52 19 65 3 14 7
28 10 32 5 8 -83 119 -95 119 -5 0 -12 -16 -16 -36z"/>
<path d="M916 4025 c-10 -27 -6 -59 9 -79 17 -22 20 -83 6 -105 -8 -13 -12
-13 -28 -1 -17 14 -17 14 -1 -6 10 -11 17 -35 16 -55 0 -18 8 -49 19 -67 l20
-32 12 84 c6 46 18 104 27 130 15 43 15 47 -4 73 -11 16 -31 38 -45 51 -21 20
-25 21 -31 7z"/>
<path d="M1195 3687 c-4 -16 -3 -39 4 -53 17 -38 12 -122 -8 -110 -3 2 -4 -19
-2 -46 2 -30 6 -46 11 -38 5 8 10 2 15 -19 10 -47 17 -32 32 67 8 48 16 101
19 117 5 24 -1 38 -29 70 l-35 40 -7 -28z"/>
<path d="M80 3482 c0 -11 24 -38 60 -66 33 -26 60 -53 60 -61 0 -8 7 -11 18
-9 16 5 111 -65 122 -90 3 -6 11 -12 19 -14 26 -6 101 -74 101 -93 0 -30 -16
-30 -55 1 -56 44 -57 36 -2 -11 34 -30 47 -48 47 -68 0 -20 2 -23 10 -11 5 8
10 26 10 40 0 14 7 37 14 52 l15 28 -197 152 c-233 182 -222 174 -222 150z"/>
<path d="M190 2999 c-16 -23 -30 -50 -30 -61 0 -28 -1 -32 -12 -45 -7 -9 -7
-17 2 -28 10 -12 15 -12 35 1 25 16 40 48 50 107 3 20 9 37 14 37 8 0 -3 -94
-18 -155 -9 -35 -8 -42 10 -57 23 -19 44 -24 34 -8 -3 5 -3 38 1 72 6 54 8 59
15 35 4 -16 5 -35 3 -42 -3 -8 -1 -22 5 -32 8 -14 10 -2 11 51 0 73 -17 149
-32 140 -5 -3 -20 1 -33 10 -24 16 -25 15 -55 -25z"/>
<path d="M0 2621 c0 -54 4 -81 13 -84 8 -4 9 -8 1 -14 -6 -4 -12 -37 -13 -71
-2 -51 1 -67 16 -79 17 -13 17 -14 1 -9 -29 9 -22 -29 7 -42 14 -6 25 -20 25
-29 0 -15 2 -15 9 -4 8 12 15 12 43 2 63 -25 79 -35 84 -58 6 -23 7 -23 26 -6
11 10 23 17 26 15 4 -2 8 1 10 6 1 5 -26 21 -60 35 -35 15 -77 36 -94 46 -31
19 -32 21 -24 63 5 24 14 83 21 131 l11 89 27 -7 c38 -9 103 -54 108 -75 3
-11 11 -16 19 -13 10 3 14 -3 14 -20 0 -14 -7 -27 -15 -31 -8 -3 -15 -14 -15
-25 0 -23 -16 -36 -25 -20 -8 12 -96 52 -102 45 -2 -2 -6 -20 -9 -40 -4 -33
-1 -37 39 -61 53 -30 77 -32 77 -5 0 18 10 25 32 21 4 0 10 15 14 34 5 29 9
33 20 24 11 -9 14 -6 14 19 0 26 4 30 23 28 23 -2 27 -7 27 -31 0 -21 -17 -19
-23 3 -3 9 -5 -8 -5 -38 0 -30 -5 -90 -11 -134 -9 -65 -8 -82 4 -100 23 -32
20 -59 -6 -51 -20 7 -20 6 -4 -19 9 -14 16 -28 15 -33 -1 -4 3 -9 9 -11 6 -2
12 5 13 15 4 41 5 49 11 78 11 50 21 126 40 310 1 12 -5 21 -18 23 -25 5 -35
20 -35 53 0 15 -7 30 -15 33 -9 3 -15 1 -14 -7 4 -30 -3 -37 -37 -37 -38 0
-39 19 -1 21 17 1 15 3 -8 8 -16 4 -80 35 -142 69 -61 34 -114 62 -117 62 -3
0 -6 -36 -6 -79z"/>
<path d="M566 2648 c-3 -18 -13 -98 -21 -178 -8 -80 -24 -224 -35 -320 -48
-432 -62 -611 -48 -625 6 -7 48 7 48 15 0 5 -10 12 -22 16 -21 6 -20 7 8 18
28 12 28 13 6 18 -12 4 -20 12 -18 20 8 26 32 277 41 433 3 57 16 185 50 480
18 155 18 155 5 155 -5 0 -12 -15 -14 -32z"/>
<path d="M5 2248 c14 -43 17 -110 6 -121 -7 -7 -11 -68 -11 -175 l0 -163 75 2
c48 1 80 -2 88 -10 9 -9 9 -14 -1 -20 -7 -4 -12 -12 -11 -17 5 -28 -3 -44 -23
-45 -16 -1 -11 -4 14 -11 58 -15 60 -43 3 -39 -18 2 -18 0 4 -17 24 -20 22
-42 -5 -42 -8 0 -14 -4 -14 -10 0 -5 7 -10 15 -10 27 0 16 -29 -12 -33 l-28
-4 28 -2 c19 -1 27 -6 27 -20 0 -11 6 -21 12 -23 7 -3 -5 -5 -26 -6 -45 -2
-63 -12 -22 -12 21 0 27 -4 22 -15 -3 -8 -8 -38 -12 -65 -5 -39 -10 -50 -21
-46 -8 4 -19 6 -24 6 -5 0 -9 6 -9 13 0 13 -24 28 -63 41 -20 6 -23 -15 -5
-44 10 -16 10 -24 0 -40 -13 -22 -16 -53 -5 -64 12 -11 14 -56 3 -56 -7 0 -10
-93 -10 -276 l0 -276 40 7 c26 4 40 3 40 -4 0 -6 10 -16 22 -22 18 -10 24 -8
35 7 12 16 29 19 109 21 65 2 102 7 118 18 13 9 31 13 41 9 10 -4 16 -3 13 2
-4 5 -2 29 2 54 11 62 3 100 -23 100 -19 0 -19 4 -13 67 4 38 11 103 16 146 4
43 10 80 12 83 3 2 24 2 48 -2 l42 -7 -7 -60 c-3 -34 -12 -78 -20 -99 -7 -21
-9 -40 -5 -43 4 -3 4 -19 1 -37 -4 -18 -4 -50 1 -71 5 -23 4 -54 -2 -78 -10
-38 -7 -59 9 -59 4 0 12 61 17 135 9 119 21 171 39 154 2 -3 6 -36 7 -75 4
-92 23 -115 32 -36 8 71 27 154 38 167 11 13 10 -77 -3 -194 -8 -69 -15 -98
-23 -94 -6 4 -5 -1 3 -10 7 -9 10 -25 7 -34 -5 -13 -4 -15 3 -8 6 6 18 98 26
205 15 191 29 314 40 342 5 11 -40 22 -217 52 -123 20 -231 40 -241 43 -17 4
-18 12 -12 66 5 46 12 66 28 79 l22 18 -22 0 c-34 0 -27 26 12 48 l20 11 -20
1 -20 1 20 9 c19 8 19 9 -2 9 -21 1 -23 6 -22 49 0 47 16 103 19 72 2 -8 2
-18 2 -21 -1 -4 12 -13 29 -20 26 -10 32 -10 40 2 6 10 1 17 -21 27 -17 6 -30
18 -31 25 -1 6 -2 25 -3 42 -1 38 -32 47 -45 13 -9 -22 -10 -21 -10 9 -1 27 2
31 22 29 12 -2 39 -11 59 -20 46 -20 49 -20 42 -2 -10 25 15 56 43 56 20 0 24
3 16 11 -8 8 -17 8 -31 0 -10 -6 -21 -8 -24 -6 -9 9 2 188 13 201 9 11 8 14
-5 14 -9 0 -16 -8 -16 -18 0 -25 -7 -31 -31 -25 -13 4 -19 14 -19 35 0 18 -4
27 -11 23 -6 -4 -9 -21 -8 -39 2 -40 -11 -115 -22 -122 -14 -8 -29 33 -28 73
2 30 3 32 6 10 6 -35 23 -25 23 13 0 18 -7 33 -19 39 -17 9 -18 16 -9 58 5 27
17 53 25 60 14 11 13 13 -8 22 -13 5 -46 19 -73 30 -67 29 -93 25 -29 -4 43
-20 54 -30 61 -58 5 -19 7 -46 5 -61 -5 -24 -8 -26 -42 -20 -20 4 -40 10 -46
14 -18 12 -46 20 -40 11 3 -5 0 -13 -6 -17 -9 -5 -10 0 -6 17 4 13 10 53 13
89 6 64 6 66 -21 78 -26 12 -27 12 -20 -10z m514 -993 c47 -8 89 -19 94 -24 4
-4 7 -28 5 -52 -3 -42 -4 -44 -33 -41 -16 2 -33 9 -37 15 -4 7 -8 8 -8 2 0 -5
-5 -3 -10 5 -7 12 -12 12 -22 2 -6 -6 -31 -12 -55 -12 l-42 0 2 53 c1 28 6 55
12 59 5 4 10 8 10 8 0 0 38 -7 84 -15z m-241 -134 c14 -1 17 -101 2 -101 -5 0
-7 7 -4 15 4 8 2 15 -4 15 -5 0 -13 -16 -16 -35 -5 -24 -12 -35 -24 -35 -12 0
-8 -7 15 -28 25 -21 32 -35 31 -60 -1 -18 -4 -35 -8 -37 -4 -3 -27 2 -51 9
l-44 14 37 1 c26 1 40 7 48 20 11 22 -7 43 -19 23 -4 -6 -15 -9 -26 -7 -11 2
-23 4 -26 4 -4 1 -9 15 -13 33 -5 24 -1 37 15 54 13 14 19 29 15 40 -9 24 2
54 21 54 12 0 13 3 4 14 -9 11 -7 13 11 11 13 -1 29 -3 36 -4z"/>
<path d="M750 1881 c19 -37 4 -201 -21 -217 -5 -3 -23 -2 -40 1 -25 6 -30 11
-26 28 3 12 2 31 -3 42 -7 18 -8 17 -15 -8 -8 -32 -12 -193 -5 -200 3 -3 22
-8 42 -12 31 -6 41 -3 63 19 14 14 34 26 43 26 9 0 23 4 31 9 12 8 12 12 2 25
-9 11 -10 16 -2 16 6 0 11 5 11 12 0 6 -3 9 -6 5 -4 -3 -20 1 -35 9 -29 15
-29 15 -24 87 11 152 17 164 64 131 16 -12 22 -23 18 -40 -2 -12 -1 -40 3 -61
l8 -38 1 40 c1 22 4 50 7 61 5 20 8 21 34 8 15 -8 31 -24 35 -37 6 -19 8 -19
12 -4 2 9 12 17 21 17 15 1 14 2 -2 12 -19 11 -213 88 -222 88 -3 0 0 -9 6
-19z"/>
<path d="M1073 1212 c-3 -105 -2 -107 20 -108 12 0 42 -4 67 -8 25 -3 62 -7
83 -9 25 -1 39 -8 43 -19 3 -9 13 -18 22 -21 14 -3 12 -6 -9 -16 -25 -13 -27
-17 -31 -112 -3 -55 -7 -101 -10 -104 -2 -3 -19 -8 -37 -11 l-32 -7 1 54 c1
62 -4 111 -17 154 -9 28 -14 30 -60 33 l-50 3 -7 -115 c-7 -101 -5 -117 10
-135 11 -12 22 -17 28 -12 24 19 79 21 113 4 30 -14 36 -14 44 -2 7 11 11 10
23 -6 13 -17 18 -18 35 -7 12 6 31 12 43 12 36 0 43 11 46 68 3 45 1 52 -16
52 -10 0 -27 9 -37 20 -17 18 -17 21 -1 45 9 14 14 30 11 35 -3 6 -2 10 3 10
15 0 24 -63 10 -71 -17 -11 -3 -23 17 -16 17 7 20 62 5 101 -17 46 -5 55 63
50 33 -3 64 -7 69 -10 4 -3 8 -23 8 -45 0 -37 -1 -39 -25 -33 -20 5 -24 3 -19
-10 4 -10 1 -16 -8 -16 -23 0 -25 -125 -3 -134 9 -3 22 -3 27 0 6 4 17 -1 24
-11 12 -16 13 -15 20 9 6 24 24 37 24 18 0 -5 14 -7 30 -4 17 2 40 -2 54 -11
29 -20 36 -14 36 33 0 47 -24 72 -44 45 -12 -17 -14 -15 -26 16 -7 19 -16 59
-19 89 -6 51 -8 55 -34 58 -21 3 -27 8 -23 18 3 9 -1 22 -9 30 -8 9 -15 11
-15 6 0 -6 -8 -9 -17 -8 -14 2 -19 16 -24 57 l-6 54 -1 -52 -2 -53 -32 4 c-18
2 -37 4 -41 5 -5 0 -7 24 -5 51 1 28 -1 50 -5 50 -14 0 -39 -29 -32 -39 3 -5
1 -12 -3 -15 -5 -3 -7 -17 -4 -31 3 -21 1 -24 -13 -19 -14 6 -16 17 -13 65 2
33 0 59 -4 59 -4 0 -8 -23 -10 -52 -4 -69 -27 -78 -30 -11 -1 40 -2 42 -5 13
-4 -35 -23 -67 -23 -39 0 12 -2 12 -10 -1 -7 -11 -10 -4 -10 28 0 23 -4 42 -9
42 -4 0 -8 -15 -7 -32 0 -18 -3 -34 -9 -35 -5 -2 -10 12 -10 30 -1 17 -4 42
-9 55 -6 18 -4 22 13 22 12 0 21 -7 21 -15 0 -8 5 -15 10 -15 15 0 12 30 -4
36 -7 3 -24 6 -38 8 -13 1 -29 6 -36 10 -8 5 -12 0 -12 -13 0 -12 -4 -21 -9
-21 -5 0 -7 10 -4 23 3 12 3 19 -1 16 -4 -3 -11 -26 -16 -50 l-9 -44 4 52 c3
39 0 53 -11 57 -9 3 -16 6 -17 6 -1 0 -3 -48 -4 -108z"/>
<path d="M798 1273 c-9 -11 -18 -47 -21 -95 -6 -63 -4 -77 9 -82 8 -3 12 -10
9 -16 -3 -5 -1 -10 4 -10 6 0 11 5 11 10 0 20 126 6 134 -15 5 -15 -59 -18
-85 -5 -18 10 -17 11 -25 -73 -3 -32 -1 -70 4 -85 6 -15 13 -39 16 -54 4 -16
10 -28 15 -28 9 0 26 48 22 64 -1 5 1 16 4 25 5 13 7 14 15 1 8 -13 10 -12 10
3 0 10 8 17 19 17 13 0 19 7 19 23 0 49 27 191 48 249 16 44 16 44 -96 53 -48
5 -78 12 -85 22 -9 12 -13 12 -27 -4z"/>
<path d="M5721 329 c3 -22 -12 -49 -27 -49 -8 0 -14 -7 -14 -15 0 -20 17 -19
30 3 8 12 13 13 16 5 3 -7 12 -13 20 -13 9 0 14 -11 14 -30 0 -30 -14 -41 -23
-17 -4 8 -8 9 -14 1 -4 -6 -20 -14 -35 -18 -16 -3 -28 -10 -28 -15 0 -5 12
-14 28 -19 l27 -10 -29 -1 c-46 -1 -13 -31 35 -31 36 0 39 -2 39 -27 0 -25 -1
-26 -13 -8 -17 22 -28 8 -20 -24 5 -18 10 -21 34 -16 18 4 29 2 29 -4 0 -6 -6
-11 -13 -11 -7 0 -22 -7 -33 -15 -17 -13 -5 -14 119 -15 l137 0 0 160 c0 145
-2 160 -17 162 -10 1 -61 3 -113 3 -52 1 -108 5 -123 10 -22 6 -28 4 -26 -6z"/>
</g>
</svg>
