<?xml version="1.0" standalone="no"?>
<!DOCTYPE svg PUBLIC "-//W3C//DTD SVG 20010904//EN"
 "http://www.w3.org/TR/2001/REC-SVG-20010904/DTD/svg10.dtd">
<svg version="1.0" xmlns="http://www.w3.org/2000/svg"
 width="92.000000pt" height="92.000000pt" viewBox="0 0 92.000000 92.000000"
 preserveAspectRatio="xMidYMid meet">
<metadata>
Created by potrace 1.11, written by Peter Selinger 2001-2013
</metadata>
<g transform="translate(0.000000,92.000000) scale(0.100000,-0.100000)"
fill="#000000" stroke="none">
<path d="M673 326 c-45 -57 -203 -94 -296 -68 -21 6 -37 7 -37 1 0 -5 -8 -9
-17 -9 -16 -1 -16 -2 2 -16 11 -8 19 -20 18 -25 -2 -5 11 -9 28 -9 24 0 30 -4
25 -15 -3 -9 0 -15 9 -15 8 0 15 3 15 8 0 4 19 8 42 9 94 6 222 70 234 118 10
40 0 50 -23 21z"/>
</g>
</svg>
